<svg width="120" height="110" viewBox="0 0 120 110" fill="none" xmlns="http://www.w3.org/2000/svg">
<path d="M22.1325 93.5034L13.7063 6.875H106.294L97.8563 93.4897L59.9438 103.125L22.1325 93.5034Z" fill="#E44F26"/>
<path d="M60 95.7619L90.6375 87.976L97.845 13.9597H60V95.7619Z" fill="#F1662A"/>
<path d="M60 46.0865H44.6625L43.605 35.2069H60V24.5815H30.9375L31.215 27.4347L34.0613 56.7119H60V46.0865ZM60 73.6794L59.9475 73.6931L47.04 70.4997L46.215 62.0262H34.5787L36.2025 78.705L59.9475 84.7481L60 84.7344V73.6794Z" fill="#EBEBEB"/>
<path d="M59.9587 46.0865V56.7119H74.2312L72.8887 70.4928L59.9587 73.6897V84.7447L83.7225 78.705L83.895 76.9106L86.6175 48.9397L86.9025 46.0865H59.9587ZM59.9587 24.5815V35.2069H87.9562L88.1887 32.8212L88.7175 27.4347L88.995 24.5815H59.9587Z" fill="white"/>
</svg>
